<svg width="168" height="186" viewBox="0 0 168 186" fill="none" xmlns="http://www.w3.org/2000/svg">
<path d="M60.1875 22.9633V33.5875C64.1377 32.7565 68.1606 32.3246 72.1961 32.2981C74.6897 32.3068 77.1805 32.4662 79.6551 32.7752V20.3975C73.0835 20.4108 66.5408 21.2731 60.1875 22.9633Z" fill="#328D2E"/>
<path d="M146.291 97.4102H134.244C134.089 100.585 133.699 103.744 133.078 106.861H146.804C146.804 106.603 146.804 106.358 146.804 106.1C146.787 103.197 146.616 100.296 146.291 97.4102Z" fill="#E73B2B"/>
<path d="M133.034 106.861C133.655 103.744 134.045 100.585 134.201 97.4102H115.015C116.922 107.487 115.457 117.915 110.85 127.065C112.626 128.359 114.102 130.024 115.177 131.946C116.252 133.869 116.9 136.003 117.076 138.202C117.253 140.4 116.954 142.611 116.199 144.682C115.445 146.753 114.254 148.636 112.707 150.199C111.161 151.762 109.296 152.97 107.241 153.739C105.186 154.508 102.989 154.82 100.803 154.653C98.6168 154.486 96.4925 153.844 94.5764 152.772C92.6602 151.7 90.9978 150.223 89.7035 148.442C80.608 153.078 70.2425 154.551 60.2266 152.633V184.028C63.099 184.355 65.9867 184.527 68.8774 184.544C89.3771 184.409 109.01 176.207 123.575 161.693C138.14 147.18 146.481 127.508 146.812 106.887L133.034 106.861Z" fill="#EC609F"/>
<path d="M110.861 127.104C107.935 124.985 104.356 123.983 100.762 124.277C97.1693 124.571 93.7978 126.143 91.2518 128.711C88.7057 131.279 87.1515 134.674 86.8675 138.29C86.5835 141.905 87.5882 145.504 89.7018 148.442C98.7655 143.708 106.155 136.274 110.861 127.155V127.104Z" fill="#00A552"/>
<path d="M102.083 154.89C105.304 154.891 108.441 153.861 111.041 151.95C113.641 150.039 115.569 147.345 116.546 144.258C117.524 141.172 117.5 137.852 116.478 134.78C115.456 131.708 113.49 129.042 110.862 127.169C106.154 136.283 98.765 143.712 89.7031 148.443C91.1036 150.436 92.9589 152.061 95.1131 153.183C97.2674 154.305 99.6577 154.89 102.083 154.89Z" fill="#971D40"/>
<path d="M137.597 28.9971C129.1 20.2081 118.938 13.2221 107.712 8.45188C96.4851 3.68168 84.422 1.22417 72.2352 1.22461C68.2181 1.23197 64.2062 1.51196 60.2266 2.06268V22.963C66.5793 21.2685 73.122 20.4018 79.6941 20.3843V32.762C88.3337 33.8315 96.6407 36.7697 104.045 41.3748C104.443 40.8767 104.871 40.4031 105.326 39.9565C108.173 37.0927 112.034 35.4838 116.06 35.4838C120.085 35.4838 123.946 37.0927 126.793 39.9565C129.64 42.8204 131.239 46.7047 131.239 50.7548C131.239 54.8049 129.64 58.6892 126.793 61.5531C126.354 62.0112 125.888 62.4418 125.396 62.8424C131.287 72.4386 134.395 83.5006 134.367 94.7795C134.367 95.6691 134.367 96.533 134.367 97.3582H146.453C146.769 100.244 146.931 103.145 146.94 106.048C146.94 106.306 146.94 106.551 146.94 106.809H164.549C166.456 92.6281 165.027 78.1948 160.377 64.6708C155.726 51.1469 147.985 38.9102 137.776 28.9455L137.597 28.9971Z" fill="#FDBE15"/>
<path d="M103.945 41.4258C101.655 44.3638 100.514 48.0444 100.739 51.7713C100.964 55.4982 102.538 59.013 105.165 61.6508C107.792 64.2886 111.288 65.8664 114.993 66.0859C118.698 66.3054 122.355 65.1512 125.271 62.8418C122.602 58.5067 119.407 54.5222 115.761 50.9798C112.232 47.3141 108.263 44.1047 103.945 41.4258Z" fill="#EC609F"/>
<path d="M126.639 40.0072C125.23 38.5885 123.557 37.4631 121.715 36.6953C119.873 35.9274 117.899 35.5322 115.906 35.5322C113.912 35.5322 111.938 35.9274 110.096 36.6953C108.255 37.4631 106.581 38.5885 105.172 40.0072C104.717 40.4537 104.289 40.9273 103.891 41.4255C108.199 44.1061 112.16 47.3154 115.681 50.9795C119.327 54.5219 122.522 58.5064 125.191 62.8415C125.682 62.4408 126.149 62.0102 126.588 61.5521C129.427 58.6979 131.026 54.8282 131.036 50.7903C131.046 46.7524 129.465 42.8751 126.639 40.0072Z" fill="#E73B2B"/>
<path d="M79.6524 32.8125C77.1765 32.525 74.6857 32.3873 72.1935 32.3999C68.1579 32.4264 64.1351 32.8583 60.1848 33.6893V22.9619C43.8542 27.3184 29.4101 36.9773 19.0952 50.4389C8.78035 63.9005 3.17189 80.4117 3.14062 97.4087H34.0657C34.0568 90.4889 35.6172 83.6583 38.6282 77.4368C36.8379 76.1467 35.3482 74.4802 34.2624 72.5527C33.1767 70.6253 32.5209 68.4832 32.3407 66.2752C32.1605 64.0672 32.4601 61.8462 33.2188 59.7664C33.9775 57.6866 35.1771 55.7978 36.7342 54.2313C38.2913 52.6647 40.1688 51.4579 42.2361 50.6947C44.3034 49.9314 46.5111 49.6299 48.7058 49.8112C50.9006 49.9925 53.0298 50.6523 54.9456 51.7446C56.8615 52.8369 58.5181 54.3357 59.8003 56.1368C65.9845 53.1076 72.7742 51.5377 79.6524 51.5467V32.8125Z" fill="#00A552"/>
<path d="M38.6328 77.4387C41.5558 79.5448 45.1271 80.5384 48.7104 80.2424C52.2936 79.9464 55.656 78.38 58.1983 75.8224C60.7406 73.2647 62.2976 69.882 62.5918 66.2771C62.8861 62.6722 61.8984 59.0793 59.8049 56.1387C50.5721 60.6479 43.115 68.1501 38.6328 77.4387Z" fill="#FDBE15"/>
<path d="M47.4678 49.7432C44.2501 49.7389 41.1144 50.7637 38.5135 52.6696C35.9127 54.5755 33.9814 57.2639 32.9986 60.3463C32.0158 63.4287 32.0324 66.7456 33.046 69.8179C34.0596 72.8902 36.0177 75.5589 38.6375 77.4383C43.1197 68.1497 50.5768 60.6476 59.8096 56.1383C58.4073 54.1606 56.5557 52.5485 54.409 51.4361C52.2623 50.3238 49.8825 49.7433 47.4678 49.7432Z" fill="#328D2E"/>
<path d="M4.93002 113.849L3 106.129H4.80135L6.08804 112.048L7.24605 106.129H9.43341L10.5914 112.048L11.7494 106.129H13.4221L11.6208 113.849H9.56208L8.40406 107.802L7.24605 113.849H4.93002Z" fill="#2F2F2F"/>
<path d="M18.4418 106C19.0852 106 19.5999 106.129 19.9859 106.257C20.5005 106.386 20.8865 106.772 21.1439 107.029C21.4012 107.287 21.6585 107.801 21.9159 108.316C22.1732 108.831 22.1732 109.345 22.1732 109.86C22.1732 110.375 22.0446 111.018 21.9159 111.404C21.7872 111.79 21.5299 112.305 21.1439 112.691C20.7579 113.077 20.3719 113.334 19.9859 113.463C19.5999 113.591 18.9565 113.72 18.3132 113.72C17.6698 113.72 17.1552 113.591 16.6405 113.463C16.1258 113.205 15.7398 112.948 15.4825 112.691C15.0965 112.305 14.9678 111.919 14.7105 111.404C14.4531 110.889 14.4531 110.375 14.4531 109.86C14.4531 109.217 14.5818 108.702 14.7105 108.316C14.8391 107.801 15.0965 107.415 15.4825 107.029C15.8685 106.643 16.2545 106.386 16.6405 106.257C17.0265 106.129 17.9272 106 18.4418 106ZM16.2545 109.989C16.2545 110.375 16.2545 110.632 16.3831 110.889C16.5118 111.147 16.6405 111.404 16.7692 111.661C16.8978 111.919 17.1552 112.047 17.4125 112.176C17.6698 112.305 18.0558 112.433 18.4418 112.433C18.8278 112.433 19.0852 112.433 19.3425 112.305C19.5999 112.176 19.8572 112.047 19.9859 111.79C20.1145 111.533 20.2432 111.275 20.3719 111.018C20.5005 110.761 20.5005 110.375 20.5005 109.989C20.5005 109.603 20.5005 109.345 20.3719 109.088C20.2432 108.831 20.1145 108.573 19.9859 108.316C19.8572 108.059 19.5999 107.93 19.3425 107.801C19.0852 107.673 18.6992 107.544 18.3132 107.544C17.9272 107.544 17.6698 107.673 17.4125 107.801C17.1552 107.93 16.8978 108.187 16.7692 108.316C16.6405 108.573 16.5118 108.831 16.3831 109.088C16.3831 109.345 16.2545 109.603 16.2545 109.989Z" fill="#2F2F2F"/>
<path d="M27.4433 106.129C27.7006 106.129 27.8293 106.129 28.0866 106.129C28.3439 106.129 28.4726 106.129 28.7299 106.258C28.9873 106.258 29.1159 106.386 29.2446 106.386C29.3733 106.515 29.6306 106.644 29.7593 106.772C30.0166 107.03 30.1453 107.287 30.274 107.544C30.4026 107.93 30.4026 108.188 30.4026 108.574C30.4026 109.088 30.274 109.346 30.1453 109.732C30.0166 110.118 29.7593 110.246 29.502 110.504C29.2446 110.632 28.9873 110.89 28.7299 110.89L30.4026 113.849H28.6013L27.0573 111.018H25.7706V113.849H24.2266V106.129H27.4433ZM27.4433 109.732C27.7006 109.732 27.8293 109.732 27.9579 109.732C28.0866 109.732 28.3439 109.603 28.4726 109.603C28.6013 109.474 28.7299 109.346 28.7299 109.217C28.8586 109.088 28.8586 108.96 28.8586 108.702C28.8586 108.445 28.8586 108.316 28.7299 108.188C28.6013 108.059 28.6013 107.93 28.4726 107.802C28.3439 107.673 28.2153 107.673 28.0866 107.673C27.9579 107.673 27.7006 107.673 27.5719 107.673H26.0279V109.86H27.4433V109.732Z" fill="#2F2F2F"/>
<path d="M34.2664 112.434H37.9978V113.849H32.5938V106.129H34.2664V112.434Z" fill="#2F2F2F"/>
<path d="M39.9297 113.849V106.129H42.7604C43.1464 106.129 43.5324 106.129 43.7897 106.258C44.0471 106.386 44.4331 106.386 44.8191 106.644C45.4624 106.901 45.8484 107.416 46.1058 107.93C46.3631 108.574 46.4918 109.217 46.4918 109.989C46.4918 111.276 46.1058 112.176 45.4624 112.82C44.8191 113.463 43.9184 113.849 42.6317 113.849H39.9297ZM42.8891 112.434C43.0177 112.434 43.1464 112.434 43.2751 112.434C43.4037 112.434 43.5324 112.434 43.6611 112.434C43.7897 112.434 43.9184 112.434 44.0471 112.305C44.1757 112.176 44.1757 112.176 44.3044 112.176C44.5617 111.919 44.8191 111.662 44.9477 111.276C45.0764 110.89 45.2051 110.504 45.2051 109.989C45.2051 109.603 45.2051 109.217 45.0764 108.96C44.9477 108.702 44.8191 108.445 44.6904 108.188C44.4331 107.93 44.1757 107.802 43.9184 107.673C43.6611 107.544 43.2751 107.544 43.0177 107.544H41.731V112.434H42.8891Z" fill="#2F2F2F"/>
<path d="M8.53688 118.738H10.3382L7.50753 123.627V126.458H5.96351V123.627L3.13281 118.738H4.93417L6.86419 122.083L8.53688 118.738Z" fill="#2F2F2F"/>
<path d="M14.9731 118.61C15.6164 118.61 16.1311 118.738 16.5171 118.867C17.0318 118.996 17.4178 119.382 17.6751 119.639C17.9325 119.896 18.1898 120.411 18.4471 120.926C18.7045 121.44 18.7045 121.955 18.7045 122.47C18.7045 122.984 18.5758 123.628 18.4471 124.014C18.3185 124.4 18.0611 124.914 17.6751 125.3C17.2891 125.686 16.9031 125.944 16.5171 126.072C16.1311 126.201 15.4878 126.33 14.8444 126.33C14.2011 126.33 13.6864 126.201 13.1717 126.072C12.6571 125.815 12.2711 125.558 12.0137 125.3C11.6277 124.914 11.499 124.528 11.2417 124.014C10.9844 123.499 10.9844 122.984 10.9844 122.47C10.9844 121.826 11.113 121.312 11.2417 120.926C11.3704 120.411 11.6277 120.025 12.0137 119.639C12.3997 119.253 12.7857 118.996 13.1717 118.867C13.9437 118.738 14.4584 118.61 14.9731 118.61ZM12.7857 122.598C12.7857 122.984 12.7857 123.242 12.9144 123.499C13.0431 123.756 13.1717 124.014 13.3004 124.271C13.4291 124.528 13.6864 124.657 13.9437 124.786C14.2011 124.914 14.5871 125.043 14.9731 125.043C15.3591 125.043 15.6164 125.043 15.8738 124.914C16.1311 124.786 16.3884 124.657 16.5171 124.4C16.6458 124.142 16.7744 123.885 16.9031 123.628C17.0318 123.37 17.0318 122.984 17.0318 122.598C17.0318 122.212 17.0318 121.955 16.9031 121.698C16.7744 121.44 16.6458 121.183 16.5171 120.926C16.3884 120.668 16.1311 120.54 15.8738 120.411C15.6164 120.282 15.2304 120.154 14.8444 120.154C14.4584 120.154 14.2011 120.282 13.9437 120.411C13.6864 120.54 13.4291 120.797 13.3004 120.926C13.1717 121.183 13.0431 121.44 12.9144 121.698C12.7857 121.955 12.7857 122.212 12.7857 122.598Z" fill="#2F2F2F"/>
<path d="M24.2323 126.587C23.589 126.587 23.0743 126.458 22.6883 126.329C22.3023 126.201 21.9163 125.943 21.659 125.557C21.4016 125.3 21.1443 124.914 21.1443 124.399C21.1443 123.885 21.0156 123.499 21.0156 122.855V118.738H22.5596V122.984C22.5596 123.241 22.5596 123.499 22.6883 123.756C22.6883 124.013 22.817 124.271 22.9456 124.399C23.0743 124.528 23.203 124.785 23.4603 124.914C23.7177 125.043 23.975 125.043 24.361 125.043C24.747 125.043 25.0043 125.043 25.2617 124.914C25.519 124.785 25.6477 124.657 25.7763 124.399C25.905 124.142 26.0337 124.013 26.0337 123.756C26.0337 123.499 26.1624 123.241 26.1624 122.984V118.738H27.7064V122.855C27.7064 123.37 27.7064 123.885 27.5777 124.399C27.449 124.914 27.3204 125.3 27.063 125.557C26.8057 125.815 26.4197 126.072 26.0337 126.329C25.2617 126.458 24.747 126.587 24.2323 126.587Z" fill="#2F2F2F"/>
<path d="M29.25 120.153V118.738H35.6834V120.153H33.2387V126.458H31.6947V120.153H29.25Z" fill="#2F2F2F"/>
<path d="M39.0206 121.955H42.4946V118.738H44.0386V126.458H42.4946V123.37H39.0206V126.458H37.4766V118.738H39.0206V121.955Z" fill="#2F2F2F"/>
<path d="M9.1775 131.348V132.763H5.31746V134.822H8.53416V136.237H5.31746V139.196H3.77344V131.476H9.1775V131.348Z" fill="#2F2F2F"/>
<path d="M16.6343 131.348V132.763H12.6456V134.564H16.1196V135.98H12.6456V137.652H16.6343V139.068H11.1016V131.348H16.6343Z" fill="#2F2F2F"/>
<path d="M22.6877 133.535C22.6877 133.149 22.559 133.02 22.3017 132.892C22.0444 132.763 21.787 132.634 21.401 132.634C21.2723 132.634 21.1437 132.634 21.015 132.634C20.8863 132.634 20.7577 132.763 20.629 132.763C20.5003 132.763 20.3717 132.892 20.3717 133.02C20.243 133.149 20.243 133.278 20.243 133.406C20.243 133.535 20.243 133.664 20.3717 133.792C20.5003 133.921 20.629 134.05 20.7577 134.05C20.8863 134.05 21.015 134.178 21.1437 134.178C21.2723 134.178 21.401 134.307 21.5297 134.307C21.6583 134.307 21.787 134.307 21.9157 134.436C22.0444 134.436 22.173 134.436 22.173 134.564C22.4304 134.693 22.8164 134.693 23.0737 134.822C23.331 134.95 23.5884 135.079 23.8457 135.208C24.103 135.336 24.2317 135.594 24.3604 135.851C24.489 136.108 24.6177 136.494 24.6177 136.88C24.6177 137.266 24.489 137.652 24.3604 138.038C24.2317 138.296 23.9744 138.553 23.717 138.81C23.4597 138.939 23.0737 139.196 22.8164 139.196C22.559 139.196 22.0444 139.325 21.6584 139.325C21.2723 139.325 20.8863 139.325 20.5003 139.196C20.1143 139.068 19.857 138.939 19.471 138.682C19.2137 138.424 18.9563 138.167 18.8276 137.91C18.699 137.652 18.5703 137.266 18.5703 136.88H20.243C20.243 137.009 20.3717 137.266 20.5003 137.395C20.629 137.524 20.7577 137.652 20.8863 137.652C21.015 137.781 21.1437 137.781 21.401 137.781C21.5297 137.781 21.787 137.781 21.9157 137.91C22.0444 137.91 22.3017 137.91 22.4304 137.91C22.559 137.91 22.6877 137.91 22.8164 137.781C22.945 137.781 23.0737 137.652 23.0737 137.524C23.0737 137.395 23.2024 137.266 23.2024 137.138C23.2024 136.88 23.0737 136.752 22.945 136.623C22.8164 136.494 22.6877 136.494 22.4304 136.366C22.3017 136.366 22.173 136.366 22.173 136.237C22.0444 136.237 22.0444 136.237 21.9157 136.108C21.787 136.108 21.787 136.108 21.6584 136.108C21.5297 136.108 21.401 136.108 21.2723 135.98C21.015 135.851 20.7577 135.851 20.3717 135.722C20.1143 135.594 19.857 135.465 19.5997 135.336C19.3423 135.079 19.085 134.95 18.9563 134.564C18.8276 134.307 18.699 133.921 18.8276 133.535C18.8276 133.149 18.9563 132.763 19.085 132.506C19.2137 132.248 19.471 131.991 19.7283 131.862C19.9857 131.734 20.3717 131.605 20.629 131.476C21.015 131.348 21.2723 131.348 21.6584 131.348C22.0444 131.348 22.4304 131.348 22.6877 131.476C22.945 131.605 23.331 131.734 23.5884 131.862C23.8457 131.991 23.9744 132.248 24.2317 132.634C24.3604 132.892 24.4891 133.278 24.4891 133.664H22.6877V133.535Z" fill="#2F2F2F"/>
<path d="M25.8984 132.763V131.348H32.3318V132.763H29.8871V139.068H28.3431V132.763H25.8984Z" fill="#2F2F2F"/>
<path d="M35.6846 139.068H34.1406V131.348H35.6846V139.068Z" fill="#2F2F2F"/>
<path d="M43.2781 131.348H44.9508L41.9914 139.068H40.3187L37.3594 131.348H39.1607L41.2194 137.138L43.2781 131.348Z" fill="#2F2F2F"/>
<path d="M47.5155 137.524L47.0008 138.939H45.3281L48.2875 131.219H50.0888L53.0482 138.939H51.3755L50.8609 137.524H47.5155ZM48.0302 136.237H50.2175L49.0595 133.02L48.0302 136.237Z" fill="#2F2F2F"/>
<path d="M56.2742 137.652H60.0056V139.068H54.6016V131.348H56.1456V137.652H56.2742Z" fill="#2F2F2F"/>
<path d="M5.32017 148.589C5.44884 148.46 5.70618 148.332 5.83484 148.074C5.96351 147.946 6.22085 147.688 6.34952 147.56C6.47818 147.431 6.60685 147.174 6.73552 147.045C6.86419 146.916 6.86419 146.659 6.86419 146.402C6.86419 146.016 6.73552 145.758 6.60685 145.501C6.34952 145.372 6.09218 145.244 5.70618 145.244C5.32017 145.244 5.06284 145.372 4.93417 145.501C4.67683 145.63 4.67683 145.887 4.54816 146.144H3.13281C3.13281 145.758 3.26148 145.372 3.39015 144.986C3.51882 144.729 3.77615 144.472 4.16216 144.214C4.4195 144.086 4.67683 143.957 4.93417 143.957C5.19151 143.957 5.44884 143.828 5.83484 143.828C6.60685 143.828 7.25019 144.086 7.76487 144.472C8.0222 144.6 8.15087 144.858 8.27954 145.115C8.40821 145.372 8.40821 145.758 8.40821 146.144C8.40821 146.402 8.40821 146.659 8.27954 146.916C8.15087 147.174 8.15087 147.431 8.0222 147.56C7.89354 147.688 7.89354 147.817 7.76487 147.946C7.6362 148.074 7.50753 148.203 7.50753 148.332C7.37886 148.46 7.25019 148.589 7.25019 148.589C7.12153 148.718 6.99286 148.846 6.86419 148.975C6.60685 149.232 6.34952 149.361 6.09218 149.618C5.83485 149.876 5.57751 150.004 5.44884 150.133H8.40821V151.548H3.26148V150.262L5.32017 148.589Z" fill="#2F2F2F"/>
<path d="M13.299 143.828C13.685 143.828 14.1997 143.957 14.5857 144.086C14.9717 144.214 15.229 144.472 15.4863 144.858C15.7437 145.244 16.001 145.63 16.1297 146.144C16.2583 146.659 16.387 147.174 16.387 147.946C16.387 148.589 16.2583 149.232 16.1297 149.747C16.001 150.262 15.7437 150.648 15.4863 150.905C15.229 151.162 14.843 151.42 14.5857 151.677C14.1997 151.806 13.8136 151.934 13.299 151.934C12.7843 151.934 12.3983 151.806 12.0123 151.677C11.6263 151.548 11.369 151.291 11.1116 150.905C10.8543 150.648 10.5969 150.133 10.4683 149.747C10.3396 149.232 10.2109 148.718 10.2109 147.946C10.2109 147.302 10.3396 146.659 10.4683 146.144C10.5969 145.63 10.8543 145.244 11.1116 144.858C11.369 144.472 11.755 144.343 12.0123 144.086C12.527 143.957 12.913 143.828 13.299 143.828ZM13.299 150.262C13.8136 150.262 14.071 150.004 14.3283 149.618C14.5857 149.232 14.7143 148.589 14.7143 147.688C14.7143 146.788 14.5857 146.144 14.3283 145.758C14.071 145.372 13.685 145.115 13.299 145.115C12.7843 145.115 12.3983 145.372 12.141 145.758C11.8836 146.144 11.755 146.788 11.755 147.688C11.755 148.589 11.8836 149.232 12.141 149.618C12.527 150.133 12.913 150.262 13.299 150.262Z" fill="#2F2F2F"/>
<path d="M20.117 148.589C20.2457 148.46 20.5031 148.332 20.6317 148.074C20.7604 147.946 21.0177 147.688 21.1464 147.56C21.2751 147.431 21.4037 147.174 21.5324 147.045C21.6611 146.916 21.6611 146.659 21.6611 146.402C21.6611 146.016 21.5324 145.758 21.4037 145.501C21.1464 145.372 20.8891 145.244 20.5031 145.244C20.117 145.244 19.8597 145.372 19.731 145.501C19.4737 145.63 19.4737 145.887 19.345 146.144H17.9297C17.9297 145.758 18.0584 145.372 18.187 144.986C18.3157 144.729 18.573 144.472 18.959 144.214C19.2164 144.086 19.4737 143.957 19.731 143.957C19.9884 143.957 20.2457 143.828 20.6317 143.828C21.4037 143.828 22.0471 144.086 22.5617 144.472C22.8191 144.6 22.9477 144.858 23.0764 145.115C23.2051 145.372 23.2051 145.758 23.2051 146.144C23.2051 146.402 23.2051 146.659 23.0764 146.916C22.9477 147.174 22.9477 147.431 22.8191 147.56C22.6904 147.688 22.6904 147.817 22.5617 147.946C22.4331 148.074 22.3044 148.203 22.3044 148.332C22.1757 148.46 22.0471 148.589 22.0471 148.589C21.9184 148.718 21.7897 148.846 21.6611 148.975C21.4037 149.232 21.1464 149.361 20.8891 149.618C20.6317 149.876 20.3744 150.004 20.2457 150.133H23.2051V151.548H18.0584V150.262L20.117 148.589Z" fill="#2F2F2F"/>
<path d="M30.2832 148.846H31.1839V150.262H30.2832V151.677H28.7392V150.262H25.0078V149.104L28.4819 143.957H30.4119V148.846H30.2832ZM26.6805 148.846H28.6105V145.758L26.6805 148.846Z" fill="#2F2F2F"/>
</svg>
